<svg width="64" height="55" viewBox="0 0 64 55" fill="none" xmlns="http://www.w3.org/2000/svg">
<path d="M63.9784 6.73915C62.8079 14.5996 61.412 23.919 60.0267 33.2492C59.3824 37.5932 58.7381 41.948 58.0938 46.292C58.0831 46.3791 58.0831 46.4771 58.0724 46.5642C57.1489 54.2178 53.3797 56.0142 47.0227 51.7573C41.6213 48.1428 36.263 44.4521 30.8938 40.7831C26.7918 37.9851 26.7167 35.7315 30.3999 32.3021C35.565 27.5008 40.6871 22.6452 45.7448 17.7242C46.7435 16.7553 48.9126 15.623 47.7851 14.1642C46.5717 12.5855 45.1757 14.6758 44.0804 15.4162C37.369 19.9561 30.6683 24.5287 24.1073 29.2863C19.7797 32.4327 15.3985 33.848 10.1905 31.7795C7.73142 30.7996 5.06833 30.3424 2.54484 29.5258C1.39585 29.1448 0.0535662 28.6984 -0.000125123 27.1198C-0.0538164 25.6283 1.08444 24.8662 2.20122 24.3545C6.56095 22.3404 10.9529 20.4133 15.3448 18.4754C28.5958 12.6291 41.8898 6.88068 55.3234 1.48068C56.1502 1.15407 56.9663 0.816569 57.8146 0.533505C62.3247 -0.947141 64.2039 0.479069 63.9784 6.72826V6.73915Z" fill="#8F00FF"/>
</svg>
