<svg width="64" height="65" viewBox="0 0 64 65" fill="none" xmlns="http://www.w3.org/2000/svg">
<path d="M33.85 0.555117C34.4453 0.982068 34.9981 1.49441 35.5084 2.00675C44.4812 10.9727 53.454 19.9387 62.3417 28.9901C64.638 31.3383 64.5104 33.3877 62.0865 35.864C53.454 44.5738 44.7789 53.2836 36.1038 61.9507C33.2971 64.7686 31.4686 64.7259 28.5769 61.8653C25.3875 58.6632 22.1556 55.4611 18.9662 52.2589C12.9277 46.0254 6.63402 40.1335 0.808107 33.7292C-0.510165 32.4057 0.000133753 31.2956 0.935682 30.3563C6.54897 24.7206 13.9908 17.2062 19.6466 11.5705C20.0294 11.1862 20.3696 10.6312 21.2626 10.4177C23.1337 12.1255 24.7922 14.0468 26.5782 15.8827C27.4712 16.822 28.1091 17.7186 27.8965 19.1275C27.6413 20.7926 28.2792 22.2442 29.6825 23.2262C30.7457 23.952 30.8307 24.8913 30.8307 26.0014C30.8307 30.3563 30.8307 34.7539 30.8307 39.1088C30.8307 40.347 30.5756 41.2436 29.555 42.0975C27.3862 43.8907 27.2161 46.9647 28.9596 48.9287C30.7882 51.0208 33.8074 51.1915 35.7636 49.3557C37.7623 47.5198 37.9324 44.6165 35.9762 42.5244C35.1257 41.5851 34.743 40.6885 34.743 39.4504C34.7855 35.2663 34.743 31.0394 34.743 26.8553C34.743 26.2576 34.4453 25.5318 35.4234 25.0194C37.5071 27.7092 41.1643 29.1609 41.0792 33.6012C41.0367 36.1202 43.6732 37.5718 46.3098 37.3156C48.6061 37.0595 50.5623 34.882 50.5197 32.5765C50.5197 30.1001 48.5636 27.8373 46.0121 27.88C44.2261 27.88 43.1204 27.1969 42.0148 25.9587C40.9516 24.806 39.846 23.6959 38.6978 22.6285C37.7623 21.7319 37.252 20.8353 37.252 19.4264C37.252 16.5658 35.3383 14.7299 32.4466 14.5164C31.8088 14.4737 31.0433 14.7726 30.533 14.2603C28.2367 12.0828 26.0254 9.81996 23.6865 7.51442C26.238 4.95271 28.7045 2.90335 30.8732 0.555117C31.5961 -0.213396 32.8719 -0.1707 33.85 0.555117Z" fill="#8F00FF"/>
</svg>
