<svg width="64" height="64" viewBox="0 0 64 64" fill="none" xmlns="http://www.w3.org/2000/svg">
<path d="M50.8256 63C50.8256 55.7085 50.8256 48.6668 50.8256 41.6252C50.8256 40.126 50.7796 38.6382 50.4235 37.1504C49.4587 33.1412 47.8047 31.6193 44.1292 31.5511C39.9253 31.4716 37.6052 33.1298 36.5255 36.8891C36.0431 38.5473 35.9856 40.2169 35.9856 41.9091C35.9856 48.8486 35.9856 55.788 35.9856 62.9659H22.9605V21.1704H35.308V26.7015C40.5341 20.0233 46.8399 18.8194 54.0301 20.6933C61.14 22.5446 63.4716 28.1325 63.7703 34.3905C64.2182 43.8399 63.8851 53.3348 63.8851 63.0114H50.8256V63Z" fill="#8F00FF"/>
<path d="M1.229 62.9773V21.1022H14.1508V62.9773H1.229Z" fill="#8F00FF"/>
<path d="M0.000262241 7.49597C0.0347202 3.25963 3.30823 2.7849e-05 7.56954 2.7849e-05C11.9342 -0.0113296 15.4834 3.4527 15.38 7.64362C15.2881 11.7323 11.7734 15.1964 7.69588 15.2077C3.3312 15.2304 -0.0341958 11.8572 0.000262241 7.49597Z" fill="#8F00FF"/>
</svg>
