<svg width="64" height="65" viewBox="0 0 64 65" fill="none" xmlns="http://www.w3.org/2000/svg">
<path d="M0 63.9998C1.38602 58.8861 2.54103 54.3527 3.86626 49.8918C4.32827 48.3444 4.18237 47.075 3.51368 45.6122C-2.12766 33.2813 -0.802431 21.6273 7.95137 11.279C16.4985 1.16038 27.8419 -2.07952 40.4863 1.28127C53.4833 4.73877 61.4103 13.7089 63.538 26.8982C65.4711 38.9511 61.3374 49.239 51.5988 56.7584C41.7508 64.3504 30.7356 65.378 19.2705 60.7116C17.3617 59.9379 15.7204 59.8049 13.8359 60.3368C9.42249 61.5699 4.9848 62.6942 0 64.0119V63.9998ZM32.1945 5.54874C12.8875 5.50038 -0.145897 25.2541 8.10942 42.5053C9.77508 45.987 9.94529 48.8763 8.85106 52.3096C7.53799 56.3957 7.72036 56.6133 11.7447 55.3319C15.3435 54.1834 18.5653 53.9779 22.0182 55.9847C25.0821 57.7618 28.6687 57.9915 32.2188 57.9794C46.9301 57.9069 58.4802 46.3859 58.4681 31.7459C58.4559 17.0455 46.9666 5.5971 32.1945 5.56083V5.54874Z" fill="#8F00FF"/>
<path d="M40.4134 47.0871C34.7477 46.2167 29.69 43.9923 25.5076 40.0754C21.3495 36.1827 17.3739 32.0724 16.0973 26.2212C15.4286 23.1627 16.3891 20.491 18.5289 18.3028C20.6322 16.151 23.3435 16.6708 24.5106 19.3304C25.0334 20.5152 25.4225 21.7603 26.0061 22.9088C26.8815 24.6255 26.8207 26.1729 25.386 27.5269C23.9149 28.9171 24.231 30.1623 25.3252 31.6614C27.538 34.7078 30.2857 37.0652 33.617 38.8302C35.5015 39.8336 36.9726 39.8699 38.079 37.8389C39.3556 35.4936 41.0699 35.2398 43.2097 36.7146C43.8541 37.1619 44.6444 37.4158 45.3617 37.7664C48.8024 39.4589 49.1064 42.7229 45.9939 45.0682C44.3769 46.2892 42.5532 47.075 40.4134 47.063V47.0871Z" fill="#8F00FF"/>
</svg>
