<svg width="65" height="65" viewBox="0 0 65 65" fill="none" xmlns="http://www.w3.org/2000/svg">
<path d="M32.0052 64.0104C49.6811 64.0104 64.0104 49.6811 64.0104 32.0052C64.0104 14.3292 49.6811 0 32.0052 0C14.3292 0 0 14.3292 0 32.0052C0 49.6811 14.3292 64.0104 32.0052 64.0104Z" fill="#8F00FF"/>
<path d="M11.7032 51.0758C17.146 45.1363 22.1646 39.6521 27.3694 33.9712C22.2267 27.0073 17.1667 20.1572 11.8687 12.9863H24.0996L34.2092 26.5416L46.7609 12.9345H50.4343C45.4053 18.4601 40.7179 23.6029 35.9269 28.8595C41.3801 36.227 46.7091 43.4393 52.2969 50.993H40.0867L29.0871 36.2787C24.4514 41.3077 19.9502 46.1814 15.4283 51.0862H11.7032V51.0758ZM46.9471 48.4061C38.5656 37.1065 30.5669 26.314 22.713 15.7284H17.3219L41.5664 48.4061H46.9471Z" fill="#FCFCFC"/>
<path d="M46.9471 48.4061L41.5767 48.4061L17.3323 15.7284H22.7234C30.5772 26.3243 38.5759 37.1065 46.9575 48.4061L46.9471 48.4061Z" fill="#8F00FF"/>
</svg>
